<svg width="19" height="19" viewBox="0 0 19 19" fill="none" xmlns="http://www.w3.org/2000/svg">
<path d="M1 9.5C1 10.6162 1.21986 11.7215 1.64702 12.7528C2.07419 13.7841 2.70029 14.7211 3.48959 15.5104C4.27889 16.2997 5.21592 16.9258 6.24719 17.353C7.27846 17.7801 8.38376 18 9.5 18C10.6162 18 11.7215 17.7801 12.7528 17.353C13.7841 16.9258 14.7211 16.2997 15.5104 15.5104C16.2997 14.7211 16.9258 13.7841 17.353 12.7528C17.7801 11.7215 18 10.6162 18 9.5C18 8.38376 17.7801 7.27846 17.353 6.24719C16.9258 5.21592 16.2997 4.27889 15.5104 3.48959C14.7211 2.70029 13.7841 2.07419 12.7528 1.64702C11.7215 1.21986 10.6162 1 9.5 1C8.38376 1 7.27846 1.21986 6.24719 1.64702C5.21592 2.07419 4.27889 2.70029 3.48959 3.48959C2.70029 4.27889 2.07419 5.21592 1.64702 6.24719C1.21986 7.27846 1 8.38376 1 9.5Z" stroke="#918F98" stroke-linecap="round" stroke-linejoin="round"/>
<path d="M7 7.5C7 8.16304 7.26339 8.79893 7.73223 9.26777C8.20107 9.73661 8.83696 10 9.5 10C10.163 10 10.7989 9.73661 11.2678 9.26777C11.7366 8.79893 12 8.16304 12 7.5C12 6.83696 11.7366 6.20107 11.2678 5.73223C10.7989 5.26339 10.163 5 9.5 5C8.83696 5 8.20107 5.26339 7.73223 5.73223C7.26339 6.20107 7 6.83696 7 7.5Z" stroke="#918F98" stroke-linecap="round" stroke-linejoin="round"/>
<path d="M5 15.9958C5.19095 15.4187 5.58167 14.9129 6.1142 14.5534C6.64673 14.1939 7.2927 13.9998 7.95628 14H11.0422C11.7066 13.9998 12.3534 14.1943 12.8863 14.5547C13.4192 14.915 13.8098 15.4219 14 16" stroke="#918F98" stroke-linecap="round" stroke-linejoin="round"/>
</svg>
